<svg version="1.1" xmlns="http://www.w3.org/2000/svg" style="display: block;" viewBox="0 0 2048 2048" width="980" height="980" preserveAspectRatio="none">
<path transform="translate(0,0)" fill="rgb(0,0,0)" d="M 304.841 1583.3 C 323.457 1581.86 344.829 1582.37 363.768 1582.37 L 453.831 1582.4 C 472.522 1582.4 499.004 1583.98 516.878 1579.87 C 522.257 1578.64 520.556 1543.24 520.56 1535.93 L 520.546 1423.89 C 520.535 1406.88 520.51 1389.87 520.301 1372.85 C 519.853 1363.73 527.425 1362.86 534.968 1362.77 C 563.434 1362.41 592.154 1362.73 620.626 1362.74 L 836.322 1362.78 L 905.982 1362.76 C 919.438 1362.76 933.203 1362.99 946.601 1362.36 C 949.504 1362.22 954.469 1361.98 956.106 1360.09 C 957.017 1359.66 959.74 1355.73 959.752 1355.02 C 960.091 1335.37 960.472 1315.8 960.501 1296.14 L 960.531 1138.27 C 960.515 1120.14 960.607 1102.33 959.848 1084.2 C 959.563 1077.38 958.881 1062.22 960.796 1056.63 C 961.943 1078.18 960.993 1108.74 960.997 1130.82 L 961.009 1276.37 C 961.006 1296.37 959.864 1332.04 961.514 1350.78 C 963.026 1345.36 962.094 1305.44 962.098 1296.85 L 962.125 1138.03 L 962.11 299.236 L 962.111 137.548 C 962.108 124.951 960.874 55.0333 963.505 47.9801 C 976.081 45.9143 1023.19 46.7054 1039.53 46.6636 L 1117.63 46.7882 C 1132.68 46.8371 1151.23 46.4398 1165.9 47.5325 C 1167.57 50.3426 1168.88 53.3745 1171.55 55.0259 C 1171.69 52.5895 1171.21 53.3019 1172.31 51.6634 C 1173.56 57.3692 1172.18 82.2032 1172.55 88.9752 C 1173.86 113.206 1169.68 249.894 1174.93 263.362 C 1182.21 269.618 1348.68 264.694 1372.86 266.252 C 1377.62 266.558 1382.29 265.861 1387.96 267.481 C 1388.61 269.28 1388.76 269.949 1389.2 271.8 C 1390.92 282.304 1389.61 304.523 1389.57 316.666 L 1389.48 420.312 C 1389.48 437.347 1389.16 454.533 1389.98 471.528 C 1390.12 474.509 1390.62 477.261 1393.59 478.37 L 1394.76 481.232 C 1397.35 482.246 1400.81 482.576 1402.81 483.627 L 1400.11 483.269 C 1432.36 491.048 1598.19 478.905 1607.8 488.833 C 1611.3 501.26 1608.42 524.773 1608.53 538.914 C 1608.92 590.822 1607.39 643.238 1609.15 695.09 C 1609.42 703.186 1619.88 703.659 1625.7 704.439 C 1645.27 704.772 1664.9 704.553 1684.48 704.535 L 1809.33 704.423 C 1812.76 704.435 1825.25 704.133 1825.72 707.454 C 1828.23 725.169 1827.06 752.568 1827.03 770.482 L 1826.99 873.334 L 1826.98 1035.86 C 1826.98 1067.19 1827.68 1101.06 1826.33 1132.09 C 1803.32 1133.1 1776.56 1132.51 1753.28 1132.52 L 1620.15 1132.58 C 1618.85 1115.43 1619.4 1096.1 1619.41 1078.75 L 1619.63 980.76 C 1619.62 967.624 1620.23 941.337 1618.85 929.034 L 1618.89 929.772 C 1618.24 925.874 1617.82 920.928 1615.59 917.791 C 1604.71 911.913 1557.25 913.649 1542.39 913.654 L 1452.09 913.712 C 1436.72 913.724 1419.62 914.291 1404.43 912.829 C 1399.84 912.388 1399.67 906.423 1399.58 902.109 C 1399.23 885.932 1399.39 869.366 1399.41 853.174 L 1399.58 757.898 C 1399.61 745.649 1401.58 707.198 1396.07 699.143 C 1383.69 697.33 1179.18 696.236 1175.81 697.518 C 1173.64 698.343 1173.29 699.56 1172.32 701.464 C 1173.01 703.015 1172.5 875.198 1172.5 889.356 L 1172.5 1601.65 L 1172.51 1742.5 C 1172.52 1748.29 1173.37 1784.92 1172.26 1788.33 L 1171.55 1783.93 L 1170.36 1783.9 C 1168.04 1785.34 1168.53 1786 1167.42 1789.38 C 1163.9 1792.18 1164.04 1788.99 1158.88 1791.27 C 1162.16 1792.78 1162.84 1792.97 1166.44 1793.26 L 1164.91 1793.91 C 1162.42 1793.43 1134.88 1794.06 1129.86 1794.06 L 1021.06 1794.04 C 1007.54 1794.08 994.028 1794.03 980.513 1793.89 C 973.762 1793.78 966.144 1793.42 959.324 1793.59 C 951.925 1793.78 953.541 1802.5 953.486 1807.16 C 953.298 1823.17 953.686 2005.63 953.396 2006.03 L 951.987 2002.98 C 953.247 1998.03 953.736 1936.35 953.026 1929.24 C 951.135 1910.3 956.297 1812.78 951.038 1802.15 C 950.113 1823.21 951.788 2002.35 949.116 2007.27 C 948.445 2008.5 946.149 2009.15 944.831 2009.5 C 933.548 2012.53 917.888 2010.34 906.063 2010.33 L 824.399 2010.32 L 632.825 2010.33 C 601.682 2010.33 570.364 2010.5 539.222 2010.38 C 534.034 2010.36 528.441 2009.9 523.961 2007.2 C 522.895 2004.76 522.865 2000.45 522.673 1997.59 L 522.122 1997.71 C 522.26 2001.5 522.305 2003.87 522.06 2007.65 L 520.931 2008.2 C 517.065 2000.72 522.847 1832.29 520.726 1811.46 C 520.237 1806.65 521.506 1802.06 519.248 1795.71 C 506.187 1789.7 411.68 1796.68 390.446 1794.01 C 376.668 1792.28 314.366 1796.73 305.687 1793.07 C 307.2 1792.75 308.55 1792.56 310.083 1792.47 L 310.89 1790.91 C 307.867 1790.18 307.871 1790.25 305.204 1788.72 C 303.108 1785.35 303.98 1750.42 303.979 1744.49 L 303.956 1661.6 C 303.945 1646.87 302.804 1594.98 304.841 1583.3 z"/>
<path transform="translate(0,0)" fill="rgb(0,0,0)" fill-opacity="0.956863" d="M 956.136 42.7323 C 973.285 40.7624 1016.56 41.8419 1036.09 41.9921 C 1081.75 42.343 1129.89 40.9905 1175.19 42.3938 C 1176.64 112.782 1175.87 189.035 1175.34 259.676 C 1188.81 262.254 1212.6 261.388 1227.35 261.39 L 1340.78 261.348 C 1352.28 261.338 1384.75 260.531 1394.11 261.77 L 1395.41 263.714 L 1391.99 263.713 C 1389.56 267.162 1392.39 267.91 1389.2 271.8 C 1388.76 269.949 1388.61 269.28 1387.96 267.481 C 1382.29 265.861 1377.62 266.558 1372.86 266.252 C 1348.68 264.694 1182.21 269.618 1174.93 263.362 C 1169.68 249.894 1173.86 113.206 1172.55 88.9752 C 1172.18 82.2032 1173.56 57.3692 1172.31 51.6634 C 1171.21 53.3019 1171.69 52.5895 1171.55 55.0259 C 1168.88 53.3745 1167.57 50.3426 1165.9 47.5325 C 1151.23 46.4398 1132.68 46.8371 1117.63 46.7882 L 1039.53 46.6636 C 1023.19 46.7054 976.081 45.9143 963.505 47.9801 C 960.874 55.0333 962.108 124.951 962.111 137.548 L 962.11 299.236 L 962.125 1138.03 L 962.098 1296.85 C 962.094 1305.44 963.026 1345.36 961.514 1350.78 C 959.864 1332.04 961.006 1296.37 961.009 1276.37 L 960.997 1130.82 C 960.993 1108.74 961.943 1078.18 960.796 1056.63 C 958.881 1062.22 959.563 1077.38 959.848 1084.2 C 960.607 1102.33 960.515 1120.14 960.531 1138.27 L 960.501 1296.14 C 960.472 1315.8 960.091 1335.37 959.752 1355.02 C 959.74 1355.73 957.017 1359.66 956.106 1360.09 C 954.469 1361.98 949.504 1362.22 946.601 1362.36 C 933.203 1362.99 919.438 1362.76 905.982 1362.76 L 836.322 1362.78 L 620.626 1362.74 C 592.154 1362.73 563.434 1362.41 534.968 1362.77 C 527.425 1362.86 519.853 1363.73 520.301 1372.85 C 520.51 1389.87 520.535 1406.88 520.546 1423.89 L 520.56 1535.93 C 520.556 1543.24 522.257 1578.64 516.878 1579.87 C 499.004 1583.98 472.522 1582.4 453.831 1582.4 L 363.768 1582.37 C 344.829 1582.37 323.457 1581.86 304.841 1583.3 C 302.804 1594.98 303.945 1646.87 303.956 1661.6 L 303.979 1744.49 C 303.98 1750.42 303.108 1785.35 305.204 1788.72 C 307.871 1790.25 307.867 1790.18 310.89 1790.91 L 310.083 1792.47 C 308.55 1792.56 307.2 1792.75 305.687 1793.07 C 314.366 1796.73 376.668 1792.28 390.446 1794.01 C 411.68 1796.68 506.187 1789.7 519.248 1795.71 C 521.506 1802.06 520.237 1806.65 520.726 1811.46 C 522.847 1832.29 517.065 2000.72 520.931 2008.2 L 522.06 2007.65 C 522.305 2003.87 522.26 2001.5 522.122 1997.71 L 522.673 1997.59 C 522.865 2000.45 522.895 2004.76 523.961 2007.2 C 528.441 2009.9 534.034 2010.36 539.222 2010.38 C 570.364 2010.5 601.682 2010.33 632.825 2010.33 L 824.399 2010.32 L 906.063 2010.33 C 917.888 2010.34 933.548 2012.53 944.831 2009.5 C 946.149 2009.15 948.445 2008.5 949.116 2007.27 C 951.788 2002.35 950.113 1823.21 951.038 1802.15 C 956.297 1812.78 951.135 1910.3 953.026 1929.24 C 953.736 1936.35 953.247 1998.03 951.987 2002.98 L 953.396 2006.03 C 953.686 2005.63 953.298 1823.17 953.486 1807.16 C 953.541 1802.5 951.925 1793.78 959.324 1793.59 C 966.144 1793.42 973.762 1793.78 980.513 1793.89 C 994.028 1794.03 1007.54 1794.08 1021.06 1794.04 L 1129.86 1794.06 C 1134.88 1794.06 1162.42 1793.43 1164.91 1793.91 L 1166.44 1793.26 C 1162.84 1792.97 1162.16 1792.78 1158.88 1791.27 C 1164.04 1788.99 1163.9 1792.18 1167.42 1789.38 C 1168.53 1786 1168.04 1785.34 1170.36 1783.9 L 1171.55 1783.93 L 1172.26 1788.33 C 1173.37 1784.92 1172.52 1748.29 1172.51 1742.5 L 1172.5 1601.65 L 1172.5 889.356 C 1172.5 875.198 1173.01 703.015 1172.32 701.464 C 1173.29 699.56 1173.64 698.343 1175.81 697.518 C 1179.18 696.236 1383.69 697.33 1396.07 699.143 C 1401.58 707.198 1399.61 745.649 1399.58 757.898 L 1399.41 853.174 C 1399.39 869.366 1399.23 885.932 1399.58 902.109 C 1399.67 906.423 1399.84 912.388 1404.43 912.829 C 1419.62 914.291 1436.72 913.724 1452.09 913.712 L 1542.39 913.654 C 1557.25 913.649 1604.71 911.913 1615.59 917.791 C 1613.83 918.185 1611.59 918.435 1610.26 919.39 C 1592.03 920.696 1557.26 919.627 1537.95 919.626 L 1394.83 919.561 C 1394.1 889.96 1394.66 858.192 1394.66 828.456 C 1394.51 786.166 1394.62 743.875 1394.97 701.586 C 1381.82 699.102 1332.29 699.888 1316.5 700.079 C 1270.41 700.638 1221.95 699.018 1176.14 700.473 C 1174.28 724.406 1175.47 760.069 1175.47 785.053 L 1175.47 941.918 L 1175.47 1508.94 L 1175.5 1691.62 C 1175.5 1723.22 1176.67 1765.79 1174.53 1796.58 C 1125.1 1798.48 1070.74 1795.38 1020.94 1796.68 C 1000.06 1797.22 976.834 1795.53 956.234 1797.79 C 955.949 1821.06 957.529 2009.92 954.181 2015.42 C 940.634 2016.93 915.475 2016.15 900.876 2016.15 L 803.979 2016.15 C 709.875 2016.16 611.881 2017.58 518.048 2015.86 C 516.332 1994.28 517.266 1961.63 517.268 1939.18 L 517.139 1797.24 C 466.908 1794.96 412.119 1797.83 361.483 1796.67 C 345.996 1796.31 311.913 1798.2 298.484 1795.56 C 297.257 1725.8 299.435 1655.34 298.436 1585.52 C 298.404 1583.3 300.808 1582.7 302.531 1581.74 L 302.27 1580.73 L 297.257 1579.56 L 297.049 1578.34 C 305.055 1575.21 491.489 1577.11 517.027 1576.64 C 518.613 1526.74 516.367 1474.04 517.281 1423.94 C 517.584 1407.37 515.905 1372.78 518.23 1358.22 C 559.818 1357.16 604.042 1357.83 645.822 1357.83 L 868.506 1357.85 C 886.103 1357.86 903.744 1357.94 921.339 1357.92 C 926.36 1357.92 951.537 1358.81 954.144 1356.37 C 957.647 1348.09 956.082 1249.49 956.082 1234.41 L 956.063 1008.07 L 956.136 42.7323 z"/>
<path transform="translate(0,0)" fill="rgb(0,0,0)" fill-opacity="0.941176" d="M 1394.83 478.405 C 1401.25 481.165 1404.45 479.939 1409.95 480.585 C 1436.22 483.671 1600.56 475.601 1613.44 482.346 C 1615.05 489.213 1613.87 523.7 1613.86 533.841 L 1613.94 636.09 C 1613.93 655.632 1613.25 679.395 1614.46 698.589 C 1636.17 701.124 1659.99 699.453 1681.98 699.94 C 1731.14 701.027 1784.2 698.219 1833.01 700.435 C 1834.37 827.105 1832.35 954.082 1833.17 1080.78 C 1833.29 1099.98 1833.45 1119.74 1832.77 1138.87 L 1693.96 1138.91 C 1672.06 1138.92 1634.71 1140 1613.88 1138.05 L 1613.82 988.986 C 1613.84 977.003 1614.91 930.058 1612.79 920.608 L 1610.26 919.39 C 1611.59 918.435 1613.83 918.185 1615.59 917.791 C 1617.82 920.928 1618.24 925.874 1618.89 929.772 L 1618.85 929.034 C 1620.23 941.337 1619.62 967.624 1619.63 980.76 L 1619.41 1078.75 C 1619.4 1096.1 1618.85 1115.43 1620.15 1132.58 L 1753.28 1132.52 C 1776.56 1132.51 1803.32 1133.1 1826.33 1132.09 C 1827.68 1101.06 1826.98 1067.19 1826.98 1035.86 L 1826.99 873.334 L 1827.03 770.482 C 1827.06 752.568 1828.23 725.169 1825.72 707.454 C 1825.25 704.133 1812.76 704.435 1809.33 704.423 L 1684.48 704.535 C 1664.9 704.553 1645.27 704.772 1625.7 704.439 C 1619.88 703.659 1609.42 703.186 1609.15 695.09 C 1607.39 643.238 1608.92 590.822 1608.53 538.914 C 1608.42 524.773 1611.3 501.26 1607.8 488.833 C 1598.19 478.905 1432.36 491.048 1400.11 483.269 L 1402.81 483.627 C 1400.81 482.576 1397.35 482.246 1394.76 481.232 L 1393.59 478.37 L 1394.83 478.405 z"/>
<path transform="translate(0,0)" fill="rgb(0,0,0)" fill-opacity="0.92549" d="M 1389.2 271.8 C 1392.39 267.91 1389.56 267.162 1391.99 263.713 L 1395.41 263.714 C 1394.05 313.82 1395.76 365.07 1395.05 415.192 C 1394.83 431.151 1396.22 464.392 1394.83 478.405 L 1393.59 478.37 C 1390.62 477.261 1390.12 474.509 1389.98 471.528 C 1389.16 454.533 1389.48 437.347 1389.48 420.312 L 1389.57 316.666 C 1389.61 304.523 1390.92 282.304 1389.2 271.8 z"/>
</svg>