<?xml version="1.0" encoding="UTF-8"?>
<!DOCTYPE svg PUBLIC "-//W3C//DTD SVG 1.1//EN" "http://www.w3.org/Graphics/SVG/1.1/DTD/svg11.dtd">
<svg xmlns="http://www.w3.org/2000/svg" version="1.1" width="200px" height="200px" style="shape-rendering:geometricPrecision; text-rendering:geometricPrecision; image-rendering:optimizeQuality; fill-rule:evenodd; clip-rule:evenodd" xmlns:xlink="http://www.w3.org/1999/xlink">
<g><path style="opacity:1" fill="#000000" d="M 34.5,0.5 C 42.1667,0.5 49.8333,0.5 57.5,0.5C 57.5,66.1667 57.5,131.833 57.5,197.5C 49.8333,197.5 42.1667,197.5 34.5,197.5C 34.4882,131.685 34.4882,66.0185 34.5,0.5 Z"/></g>
<g><path style="opacity:1" fill="#000000" d="M 65.5,0.5 C 68.8333,0.5 72.1667,0.5 75.5,0.5C 75.3334,30.8352 75.5,61.1685 76,91.5C 79.449,88.6263 82.449,85.293 85,81.5C 89.3333,73.1667 93.6667,64.8333 98,56.5C 100.964,64.9283 105.797,72.095 112.5,78C 119.31,81.7812 125.477,80.9479 131,75.5C 136.004,66.314 138.171,56.4806 137.5,46C 137.874,35.7416 136.041,25.9082 132,16.5C 125.95,8.92627 118.117,6.09294 108.5,8C 105.898,9.55358 104.731,11.7202 105,14.5C 106.626,17.1277 108.626,19.461 111,21.5C 113.801,31.7274 109.801,37.394 99,38.5C 87.3633,36.5744 83.3633,29.9078 87,18.5C 96.8927,2.31295 111.059,-3.18705 129.5,2C 159.32,13.1471 169.153,33.9804 159,64.5C 151.79,79.4497 139.79,87.1163 123,87.5C 118.572,87.1561 114.238,86.4894 110,85.5C 102.605,89.0068 100.272,94.6735 103,102.5C 103.785,104.286 104.951,105.786 106.5,107C 117.094,107.633 127.427,109.633 137.5,113C 154.219,120.246 162.552,133.079 162.5,151.5C 161.398,175.422 149.398,190.589 126.5,197C 113.339,198.722 101.673,195.389 91.5,187C 84.6158,179.43 83.7825,171.263 89,162.5C 97.219,155.527 104.886,156.194 112,164.5C 112.346,166.218 112.846,167.885 113.5,169.5C 111.109,174.2 108.775,178.866 106.5,183.5C 106.39,185.374 107.056,186.874 108.5,188C 119.868,191.095 128.034,187.262 133,176.5C 138.575,159.939 138.908,143.272 134,126.5C 127.492,117.103 118.992,114.937 108.5,120C 107,121.5 105.5,123 104,124.5C 101.484,129.531 98.9844,134.531 96.5,139.5C 92.7698,125.367 85.9365,113.033 76,102.5C 75.5,134.165 75.3334,165.832 75.5,197.5C 72.1667,197.5 68.8333,197.5 65.5,197.5C 65.5,131.833 65.5,66.1667 65.5,0.5 Z"/></g>
</svg>
