<svg id="svg8" version="1.1" viewBox="20.03044 5.75652 19.6 191.6" xmlns="http://www.w3.org/2000/svg" style="max-height: 500px" width="19.6" height="191.6">
  <defs id="defs2"/>
  
  <metadata id="metadata5">
    
      
        image/svg+xml
        
        
      
    
  </metadata>
  <g transform="translate(0,-97)" id="layer1">
    <g id="text4491" style="font-style:normal;font-variant:normal;font-weight:normal;font-stretch:normal;font-size:11.26301861px;line-height:100%;font-family:HelvLight;-inkscape-font-specification:HelvLight;letter-spacing:0px;word-spacing:0px;fill:#000000;fill-opacity:1;stroke:none;stroke-width:0.42236316px;stroke-linecap:butt;stroke-linejoin:miter;stroke-opacity:1" transform="matrix(12.372254,0,0,32.377214,-771.94089,-612.17928)" aria-label="}">
      <path id="path4504" style="font-style:normal;font-variant:normal;font-weight:normal;font-stretch:normal;font-size:6.35521507px;font-family:HelvLight;-inkscape-font-specification:HelvLight;stroke-width:0.42236316px" d="m 65.025189,25.790159 v 1.220201 q 0,0.578325 -0.216077,0.775336 -0.209722,0.197012 -0.749915,0.197012 0.31776,-0.09533 0.45122,-0.324116 0.108039,-0.184301 0.108039,-0.476641 v -1.226556 q 0,-0.394024 0.09533,-0.591035 0.120749,-0.247854 0.425799,-0.330472 -0.279629,-0.06991 -0.400378,-0.260563 -0.120749,-0.190657 -0.120749,-0.58468 v -1.31553 q 0,-0.311405 -0.09533,-0.476641 -0.127104,-0.216077 -0.46393,-0.311405 0.527483,-0.01271 0.74356,0.177946 0.222432,0.190656 0.222432,0.705428 v 1.31553 q 0,0.324116 0.09533,0.482996 0.120749,0.197012 0.425799,0.254209 -0.317761,0.108039 -0.419444,0.254209 -0.101684,0.146169 -0.101684,0.514772 z"/>
    </g>
  </g>
</svg>