<?xml version="1.0" encoding="UTF-8" standalone="no"?>
<!-- Created with Inkscape (http://www.inkscape.org/) -->

<svg
   xmlns:dc="http://purl.org/dc/elements/1.1/"
   xmlns:cc="http://creativecommons.org/ns#"
   xmlns:rdf="http://www.w3.org/1999/02/22-rdf-syntax-ns#"
   xmlns:svg="http://www.w3.org/2000/svg"
   xmlns="http://www.w3.org/2000/svg"
   xmlns:sodipodi="http://sodipodi.sourceforge.net/DTD/sodipodi-0.dtd"
   xmlns:inkscape="http://www.inkscape.org/namespaces/inkscape"
   width="60mm"
   height="200mm"
   viewBox="0 0 60 200"
   version="1.1"
   id="svg8"
   inkscape:version="0.92.1 r15371"
   sodipodi:docname="Zeichnung.svg">
  <defs
     id="defs2" />
  <sodipodi:namedview
     id="base"
     pagecolor="#ffffff"
     bordercolor="#666666"
     borderopacity="1.0"
     inkscape:pageopacity="0.0"
     inkscape:pageshadow="2"
     inkscape:zoom="0.49497475"
     inkscape:cx="74.282637"
     inkscape:cy="794.57174"
     inkscape:document-units="mm"
     inkscape:current-layer="layer1"
     showgrid="false" />
  <metadata
     id="metadata5">
    <rdf:RDF>
      <cc:Work
         rdf:about="">
        <dc:format>image/svg+xml</dc:format>
        <dc:type
           rdf:resource="http://purl.org/dc/dcmitype/StillImage" />
        <dc:title></dc:title>
      </cc:Work>
    </rdf:RDF>
  </metadata>
  <g
     inkscape:label="Ebene 1"
     inkscape:groupmode="layer"
     id="layer1"
     transform="translate(0,-97)">
    <g
       aria-label="}"
       transform="matrix(12.372254,0,0,32.377214,-771.94089,-612.17928)"
       style="font-style:normal;font-variant:normal;font-weight:normal;font-stretch:normal;font-size:11.26301861px;line-height:100%;font-family:HelvLight;-inkscape-font-specification:HelvLight;letter-spacing:0px;word-spacing:0px;fill:#000000;fill-opacity:1;stroke:none;stroke-width:0.42236316px;stroke-linecap:butt;stroke-linejoin:miter;stroke-opacity:1"
       id="text4491">
      <path
         d="m 65.025189,25.790159 v 1.220201 q 0,0.578325 -0.216077,0.775336 -0.209722,0.197012 -0.749915,0.197012 0.31776,-0.09533 0.45122,-0.324116 0.108039,-0.184301 0.108039,-0.476641 v -1.226556 q 0,-0.394024 0.09533,-0.591035 0.120749,-0.247854 0.425799,-0.330472 -0.279629,-0.06991 -0.400378,-0.260563 -0.120749,-0.190657 -0.120749,-0.58468 v -1.31553 q 0,-0.311405 -0.09533,-0.476641 -0.127104,-0.216077 -0.46393,-0.311405 0.527483,-0.01271 0.74356,0.177946 0.222432,0.190656 0.222432,0.705428 v 1.31553 q 0,0.324116 0.09533,0.482996 0.120749,0.197012 0.425799,0.254209 -0.317761,0.108039 -0.419444,0.254209 -0.101684,0.146169 -0.101684,0.514772 z"
         style="font-style:normal;font-variant:normal;font-weight:normal;font-stretch:normal;font-size:6.35521507px;font-family:HelvLight;-inkscape-font-specification:HelvLight;stroke-width:0.42236316px"
         id="path4504"
         inkscape:connector-curvature="0" />
    </g>
  </g>
</svg>
