<?xml version="1.0" encoding="UTF-8"?>
<!DOCTYPE svg PUBLIC "-//W3C//DTD SVG 1.1//EN" "http://www.w3.org/Graphics/SVG/1.1/DTD/svg11.dtd">
<svg xmlns="http://www.w3.org/2000/svg" version="1.1" width="50px" height="186px" style="shape-rendering:geometricPrecision; text-rendering:geometricPrecision; image-rendering:optimizeQuality; fill-rule:evenodd; clip-rule:evenodd" xmlns:xlink="http://www.w3.org/1999/xlink">
<g><path style="opacity:1" fill="#000000" d="M 27.5,-0.5 C 28.5,-0.5 29.5,-0.5 30.5,-0.5C 30.6621,1.5273 30.4955,3.5273 30,5.5C 26.5888,11.2089 24.4222,17.3756 23.5,24C 27.9327,43.079 28.4327,62.2457 25,81.5C 23.4349,84.9621 21.6016,88.2954 19.5,91.5C 22.5874,97.6636 25.0874,103.997 27,110.5C 28.2237,127.264 27.057,143.764 23.5,160C 25.1289,168.053 27.4623,175.886 30.5,183.5C 27.2084,183.88 24.8751,182.547 23.5,179.5C 17.9922,167.752 16.1589,155.418 18,142.5C 20.1783,129.91 20.845,117.243 20,104.5C 18.7523,100.35 17.2523,96.3501 15.5,92.5C 16.7092,88.4107 18.2092,84.4107 20,80.5C 20.8149,67.4287 20.1482,54.4287 18,41.5C 16.5433,29.8077 17.8766,18.4743 22,7.5C 24.054,4.9528 25.8874,2.28614 27.5,-0.5 Z"/></g>
</svg>
