<?xml version="1.0" encoding="UTF-8"?>
<!DOCTYPE svg PUBLIC "-//W3C//DTD SVG 1.1//EN" "http://www.w3.org/Graphics/SVG/1.1/DTD/svg11.dtd">
<svg xmlns="http://www.w3.org/2000/svg" version="1.1" width="250px" height="186px" style="shape-rendering:geometricPrecision; text-rendering:geometricPrecision; image-rendering:optimizeQuality; fill-rule:evenodd; clip-rule:evenodd" xmlns:xlink="http://www.w3.org/1999/xlink">
<g><path style="opacity:0.774" fill="#000000" d="M 127.5,8.5 C 128.586,8.61998 129.253,9.28665 129.5,10.5C 125.697,16.5785 123.697,23.2452 123.5,30.5C 126.076,46.0785 126.91,61.7451 126,77.5C 124.807,83.4186 122.64,88.9186 119.5,94C 126.156,107.056 128.323,120.889 126,135.5C 125.068,142.989 124.234,150.489 123.5,158C 123.741,161.207 124.241,164.374 125,167.5C 126.798,171.422 128.298,175.422 129.5,179.5C 128.178,179.67 127.011,179.337 126,178.5C 119.305,167.024 116.972,154.69 119,141.5C 121.187,129.581 121.853,117.581 121,105.5C 119.978,101.593 118.478,97.9259 116.5,94.5C 117.997,90.8383 119.497,87.1717 121,83.5C 121.167,80 121.333,76.5 121.5,73C 119.795,58.536 118.962,44.036 119,29.5C 119.794,21.6073 122.627,14.6073 127.5,8.5 Z"/></g>
</svg>
